<?xml version="1.0" encoding="UTF-8"?>
<svg width="118px" height="147px" viewBox="0 0 118 147" version="1.1" xmlns="http://www.w3.org/2000/svg" xmlns:xlink="http://www.w3.org/1999/xlink">
    <!-- Generator: Sketch 53.2 (72643) - https://sketchapp.com -->
    <title>logo.4f53fdbd 2</title>
    <desc>Created with Sketch.</desc>
    <defs>
        <linearGradient x1="50%" y1="0%" x2="50%" y2="100%" id="linearGradient-1">
            <stop stop-color="#F5515F" offset="0%"></stop>
            <stop stop-color="#9F041B" offset="100%"></stop>
        </linearGradient>
        <circle id="path-2" cx="54.5" cy="54.5" r="54.5"></circle>
    </defs>
    <g id="Page-1" stroke="none" stroke-width="1" fill="none" fill-rule="evenodd">
        <g id="logo.4f53fdbd-2" transform="translate(-2.000000, 0.000000)">
            <g id="logo.4f53fdbd">
                <text id="LOOKAT" fill="#FFFFFF" font-family="Gruppo" font-size="30" font-weight="normal">
                    <tspan x="0.05859375" y="146">LOOKAT</tspan>
                </text>
                <g id="Mask" transform="translate(6.000000, 0.000000)" fill="url(#linearGradient-1)" fill-rule="nonzero">
                    <circle id="path-2" cx="54.5" cy="54.5" r="54.5"></circle>
                </g>
                <g id="noun_Hand_2078376-Clipped" transform="translate(6.000000, 0.000000)">
                    <mask id="mask-3" fill="white">
                        <use xlink:href="#path-2"></use>
                    </mask>
                    <g id="path-2"></g>
                    <g id="noun_Hand_2078376" mask="url(#mask-3)">
                        <g transform="translate(17.000000, 26.000000)" id="Group">
                            <g>
                                <g fill="#FFFFFF" fill-rule="nonzero" id="Combined-Shape">
                                    <path d="M33.3126543,49.0714687 C33.2594936,48.8072107 33.231587,48.5336992 33.231587,48.2536109 C33.231587,45.9951588 31.4171619,44.1643218 29.1789552,44.1643218 C26.9407484,44.1643218 25.1263234,45.9951588 25.1263234,48.2536109 L25.1263234,61.3393358 C25.1263234,63.5977879 23.3118984,65.4286249 21.0736916,65.4286249 C18.8354849,65.4286249 17.0210599,63.5977879 17.0210599,61.3393358 L17.0210599,12.2678672 C17.0210599,10.0094151 15.2066348,8.17857811 12.9684281,8.17857811 C10.7302213,8.17857811 8.9157963,10.0094151 8.9157963,12.2678672 L8.90307303,12.2678672 C8.91281457,12.3921656 8.9170359,12.5180012 8.91549203,12.6451204 L8.10935342,79.0210389 C8.25868909,88.2816859 12.4963059,96.8134958 19.5540941,102.498477 C24.8986096,106.803434 31.5135531,109.184018 38.5000083,109.184018 C45.5680062,109.184018 52.2550926,106.747224 57.6291704,102.349704 C64.7077368,96.5574287 68.8947466,87.8865831 68.8947466,78.5143499 L68.8947466,62.1571936 L68.8947466,58.0679046 C68.8947466,54.8304678 66.6349169,52.3428999 64.0315884,52.3428999 C61.42826,52.3428999 59.1684303,54.8304678 59.1684303,58.0679046 L59.1684303,61.3393358 L59.1684303,62.1571936 L59.087363,62.1571936 C58.7118702,64.0237417 57.0764277,65.4286249 55.1157985,65.4286249 C53.1551694,65.4286249 51.5197269,64.0237417 51.1442341,62.1571936 L51.0631668,62.1571936 L51.0631668,61.3393358 L51.0631668,53.1607577 C51.0631668,49.9233209 48.8033371,47.435753 46.2000086,47.435753 C43.5966802,47.435753 41.3368505,49.9233209 41.3368505,53.1607577 L41.3368505,61.3393358 C41.3368505,63.5977879 39.5224255,65.4286249 37.2842187,65.4286249 C35.046012,65.4286249 33.231587,63.5977879 33.231587,61.3393358 L33.231587,49.8893265 C33.231587,49.6092381 33.2594936,49.3357267 33.3126543,49.0714687 Z M77.0000101,62.1571936 L77.0000101,79.3322077 C77.0000101,79.4647177 76.9937639,79.5957556 76.9815525,79.7250381 C76.6336607,91.1242722 71.3855817,101.622916 62.7344039,108.702034 C55.9293084,114.270533 47.4440205,117.362596 38.5000083,117.362596 C29.6593216,117.362596 21.2654424,114.341809 14.4974614,108.890265 C5.71212581,101.81376 0.369889992,91.229836 0.0184951553,79.7260034 C0.00468559718,79.5800965 -0.00150977648,79.4319895 0.000310666115,79.2820975 L0.0033624002,79.0308236 C0.00112677045,78.8588555 6.39452126e-06,78.6866948 6.39452126e-06,78.5143499 L0.00963499706,78.5143499 L0.810837021,12.5449001 C0.811968237,12.4517579 0.816176958,12.3593811 0.823364425,12.2678672 L0.81053275,12.2678672 C0.81053275,5.49251126 6.25380794,0 12.9684281,0 C19.6830482,0 25.1263234,5.49251126 25.1263234,12.2678672 L25.1263234,36.6838087 C26.3939012,36.2317317 27.7579589,35.9857437 29.1789552,35.9857437 C33.3791907,35.9857437 37.0819552,38.1349364 39.2660891,41.4029254 C41.2627039,40.0462642 43.6360999,39.2571749 46.2000086,39.2571749 C51.0076663,39.2571749 55.1454612,42.0316965 57.3852966,46.1202421 C59.3206392,44.8800851 61.5897092,44.1643218 64.0315884,44.1643218 C71.2763697,44.1643218 77.0000101,50.4647719 77.0000101,58.0679046 L77.0000101,62.1571936 Z"></path>
                                </g>
                            </g>
                        </g>
                    </g>
                </g>
            </g>
        </g>
    </g>
</svg>